<svg width="1200" height="400" viewBox="0 0 1200 400" fill="none" xmlns="http://www.w3.org/2000/svg">
<path fill-rule="evenodd" clip-rule="evenodd" d="M1025.1 252.959C1025.87 252.994 1026.62 253.042 1027.36 253.114C1034.5 253.648 1041.29 256.437 1046.74 261.08C1052.19 265.722 1056.03 271.977 1057.69 278.942C1059.46 285.476 1059.3 292.379 1057.24 298.827C1055.19 305.274 1051.32 310.994 1046.1 315.301C1039.18 321.201 1030.4 324.756 1020.04 325.857C1016.77 326.21 1013.49 326.39 1010.2 326.396C1000.65 326.476 991.171 324.662 982.322 321.058C975.751 318.419 969.776 314.49 964.749 309.503C959.722 304.516 955.745 298.573 953.053 292.023C952.059 299.847 948.755 307.198 943.564 313.135C939.876 317.258 935.354 320.551 930.298 322.796C925.242 325.041 919.767 326.186 914.236 326.156C909.571 326.169 904.942 325.358 900.559 323.763C895.729 322.021 891.293 319.34 887.504 315.876C880.479 322.563 871.14 326.273 861.442 326.228C860.353 326.228 859.252 326.18 858.164 326.096C851.013 325.572 844.144 323.087 838.312 318.916C827.772 324.712 815.926 327.72 803.898 327.652C784.537 327.652 766.266 320.136 753.749 307.091C748.233 317.037 738.349 323.894 725.581 325.869C723.689 326.166 721.777 326.314 719.862 326.312C711.53 326.293 703.439 323.516 696.851 318.413C685.29 324.517 672.4 327.67 659.326 327.592C657.017 327.592 654.624 327.497 652.231 327.317C636.486 326.251 621.363 320.758 608.603 311.471C604.351 308.349 600.397 304.839 596.793 300.987C594.862 306.115 591.864 310.773 587.998 314.655C584.394 318.355 580.079 321.288 575.312 323.277C570.545 325.266 565.426 326.27 560.261 326.228C555.917 326.219 551.6 325.549 547.457 324.241C541.439 322.413 535.99 319.071 531.633 314.534C527.275 309.997 524.154 304.418 522.568 298.33C521.32 293.676 520.669 288.882 520.63 284.064V283.968V257.279C520.628 255.891 520.627 254.496 520.626 253.097C520.616 243.556 520.607 233.791 520.534 224.199C520.587 221.654 520.152 219.124 519.254 216.743H519.098C517.447 216.743 514.013 216.743 512.493 223.792C512.108 225.892 511.931 228.024 511.966 230.159C511.907 240.392 511.907 250.816 511.907 260.905V283.035V283.346C511.897 287.265 511.528 291.175 510.806 295.027C509.183 303.881 504.494 311.881 497.562 317.621C490.63 323.362 481.898 326.477 472.898 326.42C471.785 326.42 470.66 326.372 469.559 326.276C460.062 325.567 451.139 321.453 444.431 314.691C441.05 311.215 438.366 307.124 436.522 302.639C432.157 307.081 427.373 311.089 422.234 314.607C418.989 316.805 415.612 318.804 412.123 320.591C395.816 328.951 377.432 332.39 359.207 330.491C340.981 328.591 323.701 321.434 309.468 309.891C307.481 308.276 305.579 306.588 303.736 304.829C300.672 309.218 296.722 312.916 292.141 315.684C276.238 325.227 258.037 330.258 239.491 330.237C185.178 330.237 141 288.097 141 236.323C141 184.548 185.178 142.42 239.491 142.42C258.064 142.388 276.291 147.437 292.201 157.021C296.78 159.793 300.723 163.5 303.772 167.9C305.627 166.129 307.541 164.417 309.54 162.802C326.395 149.166 347.414 141.719 369.094 141.702C388.079 141.698 406.625 147.411 422.318 158.098C427.251 161.479 431.855 165.318 436.067 169.564C441.559 154.627 455.296 144.957 471.893 144.957H472.288C480.357 144.969 488.216 147.538 494.736 152.294C505.075 146.526 516.736 143.544 528.575 143.641C531.279 143.641 534.067 143.784 536.879 144.059C558.598 146.298 575.996 156.818 587.22 174.471C588.105 175.859 588.919 177.259 589.709 178.684C593.696 172.93 598.414 167.72 603.745 163.185C615.459 153.191 629.902 146.848 646.571 144.454C650.929 143.816 655.328 143.492 659.733 143.485C666.629 143.457 673.499 144.326 680.171 146.07C680.171 140.479 680.192 134.862 680.213 129.243V129.238V129.234C680.234 123.609 680.255 117.982 680.255 112.38C680.307 106.518 681.268 100.7 683.103 95.1333C688.248 79.8618 702.511 70 719.431 70H720.017C736.782 70.2274 750.937 80.2089 756.25 95.4804C757.863 100.099 758.711 104.95 758.763 109.842V147.518C763.305 145.838 768.111 144.983 772.954 144.993C791.478 144.993 806.662 156.842 810.743 174.483C811.67 178.53 812.132 182.67 812.119 186.822V208.365C812.107 219.555 812.095 231.128 812.227 242.391C812.235 246.085 812.636 249.768 813.423 253.377C813.531 253.82 813.627 254.179 813.722 254.467C814.448 254.41 815.169 254.293 815.876 254.119C817.264 253.796 818.712 253.449 820.112 248.411V248.327C820.772 245.835 821.106 243.269 821.105 240.691C821.201 230.65 821.201 220.369 821.201 210.423V185.805C821.231 180.365 822.169 174.969 823.977 169.839C829.398 154.735 843.589 144.969 860.138 144.969C865.857 144.99 871.509 146.2 876.735 148.524C872.864 142.417 870.664 135.401 870.357 128.178C870.071 121.663 871.302 115.17 873.951 109.212C876.601 103.254 880.597 97.9917 885.625 93.8407C893.574 87.2103 903.599 83.5842 913.948 83.5959C935.164 83.5959 953.4 98.1613 957.313 118.304V118.388V118.471C957.327 118.548 957.345 118.624 957.363 118.7L957.364 118.703L957.364 118.703C957.404 118.877 957.445 119.048 957.445 119.213C960.699 115.793 964.562 113.008 968.836 111.003C974.194 108.441 980.056 107.108 985.995 107.102C995.819 107.058 1005.29 110.78 1012.45 117.502C1019.81 124.46 1024.16 134.014 1024.59 144.131C1024.6 144.404 1024.61 144.673 1024.63 144.94C1024.68 145.814 1024.73 146.674 1024.73 147.59H1025.26C1039.08 148.069 1050.34 155.25 1056.15 167.218C1059.11 173.101 1060.4 179.68 1059.89 186.244C1059.38 192.809 1057.09 199.109 1053.26 204.463C1048.86 210.782 1040.45 218.334 1025.1 219.304V230.195V237.627V252.959ZM1005.24 271.299L1005.24 271.297C1005.19 271.217 1005.14 271.14 1005.09 271.066L1005.13 271.136L1005.13 271.137C1005.2 271.253 1005.26 271.36 1005.33 271.449C1005.3 271.399 1005.27 271.348 1005.24 271.299ZM1021.62 275.71H1023.21L1023.17 275.686C1022.65 275.686 1022.11 275.698 1021.62 275.71ZM1021.03 275.796L1021.07 275.795C1021.1 275.794 1021.13 275.794 1021.16 275.794L1021.13 275.77C1021.07 275.781 1021.02 275.79 1020.96 275.798C1020.98 275.797 1021 275.796 1021.03 275.796ZM969.662 168.403V168.235H969.65C969.65 168.295 969.662 168.463 969.662 168.403ZM968.826 169.734C968.842 169.726 968.857 169.717 968.872 169.707H968.86C968.836 169.723 968.811 169.738 968.786 169.751C968.759 169.766 968.732 169.779 968.704 169.791C968.746 169.775 968.787 169.756 968.826 169.734ZM919.501 145.203L919.309 145.256H919.333C919.354 145.252 919.374 145.247 919.394 145.24C919.43 145.229 919.466 145.216 919.501 145.203ZM924.754 143.138C924.275 143.377 923.796 143.617 923.318 143.832V143.868C923.796 143.653 924.275 143.413 924.754 143.138ZM901.157 173.848C901.013 174.04 900.87 174.255 900.738 174.459C900.822 174.255 901.013 174.04 901.157 173.848ZM900.487 174.866C900.343 175.093 900.212 175.344 900.08 175.584C900.212 175.321 900.343 175.093 900.487 174.866ZM904.926 170.21C905.118 170.078 905.321 169.959 905.525 169.839H905.513C905.309 169.959 905.106 170.078 904.926 170.21ZM903.483 171.314C903.518 171.285 903.552 171.256 903.586 171.227H903.574C903.533 171.262 903.491 171.297 903.449 171.332C903.317 171.442 903.183 171.552 903.084 171.67C903.208 171.546 903.347 171.429 903.483 171.314ZM922.265 301.478C922.31 301.459 922.356 301.438 922.4 301.417C922.46 301.388 922.518 301.356 922.576 301.322H922.564C922.468 301.381 922.368 301.433 922.265 301.478ZM849.129 171.73C848.926 171.898 848.746 172.089 848.555 172.281C848.746 172.065 848.926 171.874 849.129 171.73ZM858.87 167.745H859.647V167.721C859.514 167.721 859.383 167.724 859.253 167.728C859.126 167.733 858.999 167.739 858.87 167.745ZM843.668 233.51V233.511V233.512C843.646 236.008 843.625 238.503 843.625 241.002C843.709 236.418 843.709 231.847 843.709 227.263C843.703 229.347 843.686 231.428 843.668 233.51ZM817.392 303.086C817.488 303.048 817.583 303.01 817.683 303.01L817.791 302.938C817.623 302.986 817.468 303.046 817.192 303.153C817.233 303.145 817.273 303.132 817.312 303.117C817.339 303.107 817.365 303.097 817.391 303.086L817.392 303.086ZM804.159 275.739C804.199 275.753 804.24 275.767 804.281 275.782L804.437 275.71C804.269 275.65 804.114 275.602 803.802 275.602C803.92 275.657 804.037 275.697 804.159 275.739ZM789.372 246.771C789.579 250.764 790.127 254.732 791.011 258.631L791.167 258.56C790.234 254.688 789.634 250.744 789.372 246.771ZM796.767 270.534C796.835 270.606 796.904 270.677 796.97 270.755L797.126 270.683C796.994 270.528 796.85 270.396 796.563 270.312C796.629 270.39 796.698 270.462 796.767 270.534ZM793.786 266.185C793.866 266.339 793.946 266.494 794.026 266.638L794.182 266.566L794.16 266.527C794.047 266.322 793.926 266.102 793.667 265.956C793.707 266.031 793.747 266.108 793.786 266.185ZM792.812 264.145C792.859 264.255 792.905 264.363 792.949 264.472L793.129 264.4L793.115 264.372L793.114 264.371C792.988 264.118 792.868 263.878 792.614 263.67C792.678 263.832 792.745 263.99 792.812 264.145ZM791.881 261.685C791.919 261.793 791.957 261.9 791.992 262.007L792.148 261.935C792.064 261.683 791.932 261.492 791.729 261.241C791.777 261.392 791.829 261.539 791.881 261.685ZM785.208 173.106C785.293 173.188 785.373 173.276 785.447 173.37V173.346C785.373 173.261 785.293 173.181 785.208 173.106ZM784.633 172.436C784.528 172.35 784.428 172.258 784.334 172.161C784.428 172.266 784.528 172.366 784.633 172.46V172.436ZM735.812 109.913V109.914L735.872 109.878C735.872 109.28 735.836 108.681 735.717 108.107C735.812 108.717 735.812 109.315 735.812 109.913ZM728.92 95.4804C729.561 95.9086 730.165 96.3889 730.727 96.9166L730.787 96.8807C730.204 96.3628 729.58 95.8944 728.92 95.4804ZM640.025 266.195C640.348 266.542 640.672 266.878 641.007 267.213H641.043C640.931 267.102 640.822 266.99 640.711 266.879C640.489 266.654 640.265 266.427 640.025 266.195ZM638.35 264.245C638.661 264.64 638.972 265.011 639.296 265.382H639.331C639.21 265.242 639.09 265.101 638.97 264.959L638.967 264.956L638.964 264.952L638.964 264.952L638.963 264.951C638.765 264.718 638.565 264.481 638.35 264.245ZM636.935 262.351C637.18 262.706 637.426 263.062 637.68 263.395H637.716C637.573 263.208 637.432 263.013 637.29 262.816C637.232 262.735 637.173 262.654 637.114 262.572C637.003 262.42 636.889 262.266 636.771 262.114L636.841 262.216L636.935 262.351ZM635.251 259.733C635.55 260.247 635.861 260.774 636.172 261.264H636.208C636.145 261.164 636.081 261.064 636.017 260.963C635.769 260.574 635.517 260.18 635.251 259.733ZM635.885 209.251C634.985 210.698 634.185 212.205 633.492 213.763H633.528C634.209 212.206 634.997 210.699 635.885 209.251ZM634.186 257.769C633.973 257.368 633.761 256.968 633.54 256.573C633.935 257.363 634.354 258.177 634.796 258.967H634.832C634.611 258.572 634.398 258.171 634.186 257.77L634.186 257.769ZM630.536 248.518C631.068 250.328 631.691 252.11 632.403 253.856H632.415C631.699 252.11 631.072 250.328 630.536 248.518ZM646.344 271.523C646.476 271.61 646.608 271.696 646.738 271.785H646.75C646.62 271.696 646.482 271.61 646.344 271.523ZM644.752 270.408C644.393 270.145 644.034 269.87 643.675 269.582C644.042 269.87 644.401 270.145 644.752 270.408ZM655.282 275.699C655.516 275.769 655.751 275.836 655.988 275.902L655.94 275.854C655.719 275.809 655.499 275.757 655.282 275.699ZM663.103 277.17C662.875 277.153 662.651 277.125 662.433 277.098L662.433 277.098C662.193 277.068 661.962 277.039 661.744 277.027C661.897 277.042 662.051 277.063 662.205 277.084C662.502 277.125 662.8 277.166 663.103 277.17ZM693.202 264.795C693.106 264.922 693.018 265.014 692.933 265.094C693.026 264.996 693.117 264.899 693.202 264.795ZM683.248 197.81L683.246 197.809L683.186 197.845C683.545 198.06 683.904 198.228 684.311 198.407C683.965 198.193 683.607 198.002 683.249 197.811L683.248 197.81ZM685.721 199.315C685.666 199.28 685.61 199.244 685.556 199.209L685.496 199.257L685.619 199.332L685.62 199.332C685.917 199.513 686.225 199.701 686.561 199.879C686.291 199.679 686.004 199.496 685.721 199.315ZM692.13 204.753L692.127 204.75C692.034 204.654 691.941 204.559 691.85 204.463L691.79 204.499C692.065 204.786 692.352 205.074 692.687 205.337C692.505 205.138 692.317 204.945 692.13 204.753ZM693.718 206.559L693.716 206.558L693.656 206.594C693.92 206.893 694.183 207.192 694.482 207.479C694.243 207.157 693.98 206.858 693.718 206.559ZM695.648 209.069L695.588 208.989C695.546 208.932 695.505 208.876 695.463 208.82L695.404 208.832C695.631 209.167 695.87 209.478 696.145 209.765C695.988 209.528 695.817 209.298 695.648 209.069ZM697.22 211.422C697.177 211.352 697.133 211.283 697.091 211.213L697.031 211.285L697.078 211.362L697.079 211.363C697.253 211.648 697.425 211.928 697.677 212.159C697.559 211.96 697.437 211.766 697.316 211.574L697.313 211.569C697.282 211.52 697.251 211.471 697.22 211.422ZM698.797 214.245C698.729 214.124 698.661 214.003 698.598 213.882V213.954C698.682 214.229 698.85 214.505 699.053 214.72C698.973 214.559 698.885 214.403 698.798 214.248L698.797 214.245ZM695.607 179.342C694.841 178.696 694.075 178.073 693.298 177.475C694.075 178.073 694.841 178.672 695.607 179.342ZM681.846 170.785C681.26 170.521 680.65 170.27 680.075 170.043C680.709 170.27 681.308 170.533 681.846 170.785ZM669.95 167.156C669.518 167.079 669.118 167.008 668.684 166.943C669.113 167.011 669.542 167.086 670.006 167.167C670.189 167.199 670.378 167.232 670.574 167.266C670.363 167.229 670.163 167.194 669.97 167.16L669.952 167.157L669.95 167.156ZM674.044 168.032C673.171 167.804 672.286 167.601 671.4 167.421H671.364C672.273 167.601 673.135 167.804 674.044 168.032ZM675.997 168.587C675.397 168.408 674.793 168.238 674.188 168.08L674.152 168.14C674.755 168.253 675.391 168.412 675.997 168.587ZM677.482 169.062L677.479 169.061H677.443C678.041 169.265 678.627 169.468 679.262 169.695C678.677 169.469 678.079 169.265 677.482 169.062L677.482 169.062ZM662.186 166.308H659.745C660.535 166.261 661.361 166.273 662.186 166.308ZM649.849 167.003C650.807 166.859 651.764 166.739 652.721 166.644H652.685C651.728 166.739 650.783 166.859 649.849 167.003ZM561.541 178.588C563.382 180.387 565.06 182.345 566.555 184.44H566.579C565.076 182.344 563.39 180.386 561.541 178.588ZM496.572 179.107L496.768 178.923C496.841 178.856 496.913 178.788 496.985 178.72H496.925C496.279 179.33 495.621 179.952 495.047 180.611C495.546 180.064 496.06 179.584 496.572 179.107ZM655.562 166.404L655.605 166.404H655.521L655.51 166.405L655.562 166.404ZM523.705 166.62C523.832 166.606 523.96 166.593 524.091 166.58C524.014 166.588 523.937 166.596 523.86 166.604C523.808 166.609 523.757 166.615 523.705 166.62ZM521.18 166.931C521.731 166.847 522.293 166.775 522.843 166.715H522.784C522.233 166.775 521.671 166.847 521.18 166.931ZM516.394 167.907L516.394 167.907C516.843 167.789 517.284 167.674 517.734 167.577H517.674C517.248 167.669 516.855 167.777 516.454 167.889L516.238 167.948L516.394 167.907ZM513.966 168.623C514.422 168.474 514.872 168.327 515.341 168.199H515.257C514.731 168.343 514.228 168.511 513.797 168.678L513.966 168.623ZM511.784 169.379C512.175 169.228 512.556 169.08 512.948 168.941H512.888C512.278 169.157 511.655 169.396 511.117 169.636C511.344 169.55 511.566 169.464 511.784 169.379ZM509.406 170.355C509.813 170.171 510.224 169.995 510.638 169.827H510.578C510.182 169.988 509.788 170.172 509.406 170.355ZM506.228 171.957C506.746 171.671 507.274 171.396 507.802 171.132H507.743C507.328 171.322 506.96 171.536 506.614 171.736C506.564 171.765 506.515 171.794 506.466 171.822L506.436 171.839C506.366 171.88 506.297 171.919 506.228 171.957ZM501.891 174.734C502.322 174.423 502.765 174.124 503.195 173.836H503.1C502.669 174.124 502.226 174.423 501.891 174.734ZM497.009 204.762C497.464 204.188 497.93 203.625 498.409 203.087H498.266C497.787 203.625 497.32 204.188 497.009 204.762ZM495.609 206.833C495.956 206.223 496.375 205.612 496.806 205.026H496.662C496.231 205.612 495.812 206.211 495.609 206.833ZM494.245 209.035C494.592 208.377 494.975 207.743 495.37 207.108H495.178C495.159 207.143 495.14 207.178 495.12 207.214C495.085 207.278 495.049 207.342 495.013 207.407C494.716 207.942 494.417 208.48 494.245 209.035ZM493.084 211.369C493.395 210.675 493.73 209.993 494.089 209.322H493.982C493.599 209.993 493.3 210.675 493.084 211.369ZM492.091 213.822C492.366 213.08 492.654 212.35 492.977 211.632H492.785L492.749 211.727C492.485 212.414 492.217 213.113 492.091 213.822ZM465.036 169.154C465.188 169.08 465.339 169.005 465.491 168.941L465.264 168.989L465.24 169.002C465.065 169.095 464.855 169.207 464.809 169.265C464.848 169.246 464.887 169.227 464.926 169.208C464.963 169.19 465 169.172 465.036 169.154ZM460.681 172.317C460.848 172.125 461.028 171.934 461.207 171.754L461.052 171.802C460.872 171.981 460.693 172.173 460.681 172.317ZM456.864 179.988C456.959 179.509 457.079 179.043 457.211 178.588L457.055 178.636C456.888 179.091 456.804 179.557 456.864 179.988ZM459.944 173.177L459.944 173.177C460.067 173.014 460.193 172.847 460.334 172.688L460.178 172.735C459.999 172.927 459.843 173.154 459.843 173.31C459.877 173.266 459.91 173.222 459.944 173.177ZM459.089 174.387C459.12 174.338 459.152 174.288 459.183 174.238C459.296 174.057 459.41 173.874 459.532 173.705L459.376 173.753C459.344 173.826 459.298 173.903 459.253 173.979C459.167 174.125 459.081 174.269 459.089 174.387ZM458.431 175.536C458.551 175.285 458.682 175.033 458.814 174.806L458.658 174.854L458.643 174.882L458.643 174.882C458.517 175.111 458.397 175.329 458.431 175.536ZM457.845 176.805C457.946 176.531 458.062 176.264 458.192 176.003L458.084 176.039C457.992 176.29 457.912 176.545 457.845 176.805ZM457.372 178.095C457.458 177.814 457.546 177.527 457.653 177.259L457.498 177.295C457.378 177.595 457.282 177.918 457.342 178.193L457.372 178.095ZM431.604 200.765C432.298 201.962 432.956 203.242 433.59 204.523C432.956 203.242 432.298 201.998 431.604 200.765ZM426.686 193.273C424.883 190.894 422.949 188.616 420.894 186.451C422.953 188.613 424.886 190.891 426.686 193.273ZM401.844 172.281C403.197 172.963 404.501 173.693 405.793 174.459C404.501 173.705 403.197 172.963 401.844 172.281ZM334.788 260.199C334.353 259.611 333.925 258.939 333.514 258.269C333.922 258.923 334.355 259.568 334.788 260.199ZM333.124 257.626C332.598 256.752 332.119 255.855 331.664 254.933C332.119 255.855 332.61 256.752 333.124 257.626ZM343.092 269.032C340.716 267.116 338.547 264.958 336.618 262.593H336.571C338.514 264.961 340.699 267.119 343.092 269.032ZM344.689 270.228L344.69 270.229C344.841 270.338 344.993 270.447 345.146 270.558C345.278 270.654 345.411 270.752 345.545 270.851C344.985 270.467 344.435 270.061 343.892 269.648C344.156 269.844 344.421 270.035 344.689 270.228ZM327.752 230.111C327.445 232.147 327.289 234.204 327.285 236.263L327.237 236.287C327.258 238.339 327.43 240.387 327.752 242.415C327.146 238.336 327.146 234.19 327.752 230.111ZM350.834 198.611C351.755 198.156 352.701 197.737 353.67 197.414C352.701 197.797 351.743 198.204 350.834 198.611ZM336.571 210.028C335.936 210.818 335.314 211.632 334.74 212.422C335.314 211.572 335.936 210.794 336.571 210.028ZM348.24 272.608C349.064 273.094 349.909 273.592 350.786 273.975V273.951C350.542 273.822 350.3 273.696 350.06 273.572L350.059 273.571C349.384 273.219 348.726 272.877 348.082 272.515L348.24 272.608ZM359.569 277.098C361.642 277.564 363.745 277.884 365.863 278.056V278.032C363.746 277.868 361.643 277.556 359.569 277.098ZM379.896 276.732C380.503 276.577 381.106 276.423 381.694 276.237V276.213C381.261 276.35 380.82 276.469 380.376 276.59L380.374 276.59C380.081 276.67 379.786 276.75 379.492 276.835C379.627 276.8 379.762 276.766 379.896 276.732ZM390.154 272.491C391.47 271.701 392.774 270.863 393.971 269.953V269.929C392.75 270.839 391.47 271.677 390.154 272.491ZM218.264 201.196C217.426 201.603 216.599 202.036 215.79 202.493C216.594 202.036 217.41 201.603 218.264 201.196ZM220.178 200.31C221.483 199.748 222.811 199.245 224.175 198.802C222.811 199.281 221.483 199.748 220.178 200.31ZM430.692 273.389C431.035 272.842 431.364 272.302 431.663 271.785L431.516 272.028L431.338 272.323C431.123 272.68 430.908 273.036 430.692 273.389ZM471.605 303.465C472.108 303.536 472.599 303.536 473.089 303.536L473.137 303.524C472.626 303.534 472.114 303.514 471.605 303.465ZM487.269 294.788C487.389 294.536 487.508 294.261 487.616 293.986L487.604 293.962C487.55 294.099 487.493 294.237 487.436 294.375C487.397 294.471 487.357 294.567 487.319 294.663C487.302 294.704 487.285 294.746 487.269 294.788ZM486.587 296.056C486.675 295.904 486.762 295.742 486.85 295.58C486.872 295.54 486.893 295.501 486.914 295.462C486.937 295.42 486.959 295.379 486.982 295.338L486.97 295.314C486.842 295.497 486.756 295.687 486.669 295.878C486.642 295.937 486.615 295.997 486.587 296.056ZM484.924 298.33C485.091 298.139 485.259 297.935 485.414 297.732L485.402 297.708C485.346 297.781 485.289 297.854 485.231 297.928C485.168 298.008 485.105 298.088 485.043 298.17C485.002 298.223 484.963 298.276 484.924 298.33ZM488.027 292.936C488.001 293.019 487.973 293.103 487.94 293.187C487.95 293.157 487.961 293.127 487.971 293.097C487.99 293.044 488.009 292.99 488.027 292.936ZM517.018 194.114C517.712 194.051 518.414 194.051 519.134 194.051L519.11 194.027C518.37 194.027 517.67 194.051 517.018 194.114ZM521.587 194.111C521.525 194.106 521.463 194.101 521.402 194.096C521.354 194.093 521.307 194.089 521.26 194.086C521.369 194.093 521.478 194.101 521.587 194.111ZM558.921 303.381C559.425 303.41 559.93 303.415 560.435 303.395C559.94 303.498 559.425 303.472 558.921 303.381ZM556.456 303.01C555.81 302.866 555.163 302.711 554.505 302.507V302.555C555.163 302.758 555.81 302.914 556.456 303.01ZM558.586 303.345C558.059 303.285 557.521 303.213 556.982 303.117V303.165C557.055 303.178 557.128 303.192 557.2 303.205C557.666 303.291 558.13 303.376 558.586 303.345ZM569.822 300.616C569.423 300.863 569.024 301.103 568.625 301.334V301.382C569.024 301.119 569.423 300.863 569.822 300.616ZM571.138 299.515C570.851 299.778 570.551 300.018 570.24 300.257V300.305C570.563 300.066 570.85 299.79 571.138 299.515L571.138 299.515ZM572.406 298.21C572.143 298.51 571.88 298.797 571.604 299.06V299.132C571.88 298.869 572.143 298.593 572.406 298.21ZM576.582 286.446C576.579 287.141 576.539 287.837 576.463 288.528V288.6C576.541 287.885 576.581 287.165 576.582 286.446ZM573.651 296.571C573.389 296.987 573.101 297.387 572.789 297.768V297.839C573.103 297.436 573.391 297.012 573.651 296.571ZM574.716 294.776C574.449 295.314 574.153 295.837 573.83 296.343V296.415C574.156 295.886 574.451 295.338 574.716 294.776ZM575.434 293.112C575.278 293.495 575.111 293.902 574.919 294.309V294.381C575.111 293.974 575.278 293.567 575.434 293.112ZM575.961 291.361L575.961 291.361C575.865 291.716 575.766 292.078 575.649 292.43V292.502C575.781 292.107 575.888 291.7 575.996 291.233L575.961 291.361ZM576.379 289.162C576.319 289.629 576.247 290.084 576.151 290.515V290.587C576.247 290.216 576.319 289.701 576.379 289.162ZM801.182 304.829H801.996C801.756 304.853 801.505 304.853 801.182 304.829ZM860.679 303.519C860.457 303.505 860.233 303.491 860.009 303.489C860.465 303.532 860.924 303.551 861.382 303.548C861.151 303.548 860.916 303.534 860.679 303.519ZM864.963 303.096C864.878 303.115 864.793 303.133 864.709 303.153V303.201C864.767 303.185 864.832 303.17 864.899 303.154C865.082 303.11 865.288 303.061 865.463 302.974C865.303 303.022 865.133 303.059 864.963 303.096ZM869.82 300.993C869.78 301.019 869.74 301.046 869.7 301.071C869.643 301.108 869.587 301.144 869.531 301.179L869.579 301.226L869.612 301.206C869.794 301.093 869.982 300.975 870.117 300.784C870.067 300.821 870.016 300.858 869.964 300.894C869.917 300.928 869.869 300.961 869.82 300.993ZM925.352 299.252C925.244 299.359 925.137 299.443 925.029 299.539H925.077C925.093 299.525 925.109 299.511 925.124 299.497L925.125 299.496L925.127 299.495C925.217 299.417 925.301 299.343 925.352 299.252Z" fill="white"/>
<path d="M734.635 102.991C732.54 96.818 726.793 93.0976 719.777 93.0019C712.761 92.9062 706.775 96.5069 704.716 102.572C703.624 105.865 703.055 109.308 703.028 112.776C702.884 136.415 702.956 160.041 702.956 183.691V186.084C700.453 183.871 698.059 181.694 695.605 179.576C682.315 168.248 666.715 164.719 649.845 167.159C624.631 170.832 608.145 185.582 599.561 209.172C593.574 225.645 593.694 242.476 598.675 259.2C602.781 273.005 610.348 284.609 622.081 293.198C631.431 300.004 642.527 304.008 654.072 304.743C666.58 305.93 679.134 302.989 689.81 296.369C695.66 292.74 700.609 287.831 704.285 282.013C704.521 285.554 704.944 289.08 705.554 292.576C706.453 296.15 708.659 299.258 711.737 301.288C714.814 303.318 718.541 304.124 722.184 303.546C731.175 302.159 736 296.584 736 287.361C736 228.344 736 169.28 736 110.168C735.932 107.718 735.471 105.295 734.635 102.991ZM694.647 263.292C679.214 283.688 645.715 282.659 633.587 256.76C626.954 242.572 627.026 228.241 633.587 214.029C639.381 201.348 651.426 193.908 665.793 193.86C680.759 193.31 694.168 202.856 700.298 217.785C706.895 233.803 705.219 249.223 694.647 263.244V263.292Z" fill="#282D39"/>
<path d="M876.592 181.816C875.596 174.263 870.304 169.064 862.397 168.132C856.397 167.403 848.358 169.566 845.394 177.788C844.449 180.514 843.962 183.377 843.954 186.262C843.834 204.534 843.954 222.831 843.81 241.104C843.79 245.683 843.164 250.24 841.95 254.656C838.915 265.544 832.435 273.706 820.952 276.383C806.553 279.765 794.793 274.519 791.086 258.708C789.925 253.512 789.326 248.207 789.298 242.885C789.082 224.301 789.298 205.729 789.178 187.146C789.191 184.71 788.926 182.28 788.386 179.904C785.35 166.758 769.067 165.061 761.436 172.16C757.176 176.115 756.06 181.242 756.036 186.692C755.988 208.514 755.988 230.344 756.036 252.182C756.074 255.66 756.359 259.13 756.888 262.568C758.448 273.443 762.3 283.386 770.015 291.429C784.822 306.87 811.604 309.487 830.011 297.464C836.449 293.326 841.66 287.55 845.106 280.733C845.322 284.02 845.466 286.708 845.658 289.314C846.246 297.297 851.946 302.938 860.057 303.655C863.771 304.046 867.497 303.035 870.498 300.822C873.5 298.609 875.559 295.356 876.268 291.704C876.751 289.385 876.984 287.021 876.964 284.653C877.012 252.609 877.012 220.556 876.964 188.496C876.998 186.264 876.873 184.031 876.592 181.816Z" fill="#282D39"/>
<path d="M930.201 180.388C928.604 173.345 923.336 168.854 915.969 168.1C908.603 167.345 902.357 170.914 899.722 177.501C898.651 180.262 898.097 183.197 898.089 186.16C897.946 202.688 898.018 219.251 898.018 235.791C898.018 252.857 898.018 269.912 898.018 286.978C898.018 294.847 901.94 300.512 908.567 302.943C911.672 304.103 915.05 304.314 918.274 303.548C921.498 302.783 924.425 301.077 926.685 298.643C929.629 295.129 931.156 290.634 930.964 286.044C931.012 252.741 931.012 219.431 930.964 186.112C930.9 184.183 930.645 182.265 930.201 180.388Z" fill="#282D39"/>
<path d="M1025.84 276.008C1023.33 275.845 1020.82 275.957 1018.33 276.343C1010.46 277.384 1005.8 274.356 1003.9 266.624C1003.37 264.54 1003.08 262.404 1003.03 260.256C1002.94 250.309 1003.03 240.386 1003.03 230.439C1003.03 220.205 1003.03 209.971 1003.03 199.749C1003.03 197.63 1003.68 196.864 1005.82 196.912C1011.68 197.031 1017.54 197.055 1023.39 196.912C1028.02 196.792 1032.52 195.835 1035.36 191.717C1036.87 189.666 1037.77 187.23 1037.96 184.69C1038.15 182.15 1037.62 179.607 1036.44 177.353C1034.22 172.793 1030.19 170.722 1025.23 170.554C1018.8 170.339 1012.34 170.291 1005.9 170.195C1003.18 170.195 1003.06 170.052 1003.01 167.263C1002.91 160.009 1003.01 152.731 1002.63 145.478C1001.9 133.52 989.926 126.578 979.151 131.713C972.902 134.669 970.495 140.091 970.304 146.507C970.112 153.617 970.208 160.751 970.304 167.861C970.304 169.597 969.681 170.255 967.969 170.255C965.838 170.159 963.672 170.159 961.529 170.255C957.303 170.447 952.981 170.59 949.557 173.523C945.486 176.982 944.337 181.495 945.343 186.594C946.348 191.693 949.509 195.26 954.645 196.17C958.82 196.718 963.028 196.989 967.239 196.984C970.292 197.103 970.316 196.984 970.316 200.108C970.316 220.277 970.124 240.434 970.46 260.615C970.629 266.829 971.517 273.002 973.105 279.012C974.221 283.813 976.491 288.269 979.718 291.994C982.946 295.719 987.033 298.601 991.626 300.39C1000.21 303.981 1009.18 304.544 1018.27 303.586C1023.28 303.06 1028.1 301.647 1032.01 298.331C1033.99 296.791 1035.46 294.686 1036.23 292.293C1037 289.901 1037.02 287.333 1036.3 284.925C1035.8 282.489 1034.49 280.29 1032.6 278.676C1030.7 277.062 1028.33 276.123 1025.84 276.008Z" fill="#282D39"/>
<path d="M568.263 186.423C560.455 174.09 548.959 167.791 534.628 166.31C519.204 164.744 505.799 169.068 494.867 180.329C492.116 183.159 490.062 186.64 487.66 189.711C487.444 186.688 487.492 183.4 486.963 180.208C486.47 176.574 484.657 173.251 481.87 170.875C479.084 168.499 475.52 167.238 471.864 167.333C463.911 167.261 457.977 171.97 456.392 179.751C456.095 181.44 455.967 183.155 456.007 184.869V213.269H460.248C466.361 213.269 472.225 215.704 476.548 220.038C480.871 224.373 483.299 230.251 483.299 236.381C483.299 242.511 480.871 248.389 476.548 252.724C472.225 257.058 466.361 259.493 460.248 259.493H456.079V285.351C456.079 286.315 456.079 287.278 456.079 288.254C456.488 296.998 462.566 303.236 471.383 303.911C475.362 304.337 479.353 303.223 482.54 300.796C485.726 298.369 487.867 294.813 488.525 290.855C488.989 288.361 489.218 285.829 489.209 283.292C489.209 265.527 489.209 247.787 489.282 230.022C489.251 226.299 489.598 222.582 490.315 218.929C493.522 204.043 504.393 192.758 521.547 193.842C529.439 194.348 535.469 197.853 539.181 204.959C542.148 210.851 543.652 217.375 543.565 223.976C543.709 244.041 543.565 264.106 543.709 284.195C543.748 287.101 544.152 289.99 544.911 292.794C545.505 295.207 546.723 297.42 548.442 299.211C550.161 301.001 552.319 302.307 554.701 302.996C566.521 306.693 576.815 299.298 576.864 286.845C577.008 262.95 577.08 239.091 576.864 215.208C576.755 204.993 573.774 195.015 568.263 186.423Z" fill="#282D39"/>
<path d="M900.297 110.954C890.164 119.371 890.651 134.367 901.343 141.751C908.983 147.018 917.096 147.282 925.271 143.133C932.253 139.526 935.708 133.718 936 125.853C935.891 124.807 935.878 123.604 935.647 122.45C932.655 107.19 912.656 100.732 900.297 110.954Z" fill="#282D39"/>
<path d="M264.315 269.753C256.844 274.255 248.291 276.616 239.583 276.58C215.089 276.58 195.146 258.55 195.146 236.47C195.146 214.39 215.089 196.384 239.559 196.384C248.276 196.338 256.839 198.7 264.315 203.211C266.067 204.277 268.01 204.986 270.034 205.296C272.058 205.607 274.123 205.513 276.111 205.02C278.098 204.527 279.97 203.645 281.62 202.424C283.269 201.203 284.663 199.668 285.722 197.904C286.781 196.141 287.485 194.185 287.794 192.148C288.102 190.112 288.009 188.033 287.519 186.033C287.03 184.032 286.153 182.148 284.94 180.488C283.727 178.828 282.201 177.425 280.45 176.359C268.121 168.891 253.996 164.963 239.607 165C197.916 165 164 197.057 164 236.53C164 276.003 197.916 308 239.607 308C254.002 308.016 268.13 304.085 280.473 296.629C284.014 294.473 286.559 290.989 287.548 286.943C288.537 282.898 287.889 278.624 285.746 275.06C283.603 271.496 280.142 268.934 276.123 267.939C272.104 266.944 267.856 267.596 264.315 269.753Z" fill="#282D39"/>
<path d="M460.816 220.211H439.588C438.049 213.269 435.477 206.599 431.958 200.425C430.487 197.816 428.845 195.308 427.042 192.918C425.244 190.532 423.311 188.25 421.254 186.083C417.806 182.502 413.999 179.287 409.893 176.49C407.418 174.795 404.837 173.261 402.167 171.897C392.412 166.897 381.646 164.199 370.692 164.011C359.738 163.822 348.886 166.148 338.965 170.81C329.045 175.472 320.32 182.347 313.456 190.909C306.592 199.471 301.772 209.494 299.364 220.211H278.184C276.08 220.152 273.986 220.518 272.025 221.285C270.064 222.052 268.276 223.206 266.768 224.677C265.259 226.149 264.06 227.909 263.241 229.853C262.422 231.798 262 233.887 262 235.997C262 238.108 262.422 240.197 263.241 242.141C264.06 244.085 265.259 245.845 266.768 247.317C268.276 248.789 270.064 249.942 272.025 250.71C273.986 251.477 276.08 251.842 278.184 251.784H299.364C302.953 267.741 311.848 281.998 324.589 292.215C337.329 302.431 353.157 307.997 369.47 308C380.856 308.039 392.086 305.337 402.215 300.121C414.696 293.696 425.046 283.772 432.006 271.558C435.509 265.38 438.08 258.717 439.636 251.784H460.816C462.92 251.842 465.014 251.477 466.975 250.71C468.936 249.942 470.724 248.789 472.232 247.317C473.741 245.845 474.94 244.085 475.759 242.141C476.578 240.197 477 238.108 477 235.997C477 233.887 476.578 231.798 475.759 229.853C474.94 227.909 473.741 226.149 472.232 224.677C470.724 223.206 468.936 222.052 466.975 221.285C465.014 220.518 462.92 220.152 460.816 220.211ZM408.194 251.784C407.812 252.743 407.381 253.679 406.927 254.59C404.646 259.165 401.563 263.292 397.826 266.773C395.575 268.844 393.114 270.673 390.483 272.229C387.814 273.794 384.977 275.053 382.027 275.983C380.025 276.618 377.978 277.103 375.904 277.434C373.776 277.772 371.625 277.94 369.47 277.937C368.37 277.937 367.294 277.937 366.205 277.817C364.089 277.645 361.987 277.324 359.915 276.858C357.879 276.375 355.88 275.746 353.935 274.975C352.966 274.592 352.033 274.184 351.101 273.776C349.27 272.863 347.503 271.826 345.815 270.67C344.977 270.095 344.164 269.471 343.363 268.836C340.179 266.291 337.383 263.294 335.063 259.938C334.489 259.099 333.939 258.223 333.401 257.36C332.364 255.581 331.449 253.734 330.662 251.832C330.16 250.633 329.729 249.374 329.347 248.103C326.97 240.241 326.97 231.85 329.347 223.988C329.718 222.722 330.158 221.477 330.662 220.258C331.442 218.349 332.357 216.497 333.401 214.718C333.939 213.831 334.489 212.992 335.063 212.14C337.382 208.784 340.178 205.787 343.363 203.243C344.164 202.607 344.977 202.044 345.815 201.408C347.507 200.258 349.273 199.22 351.101 198.302C352.009 197.847 352.966 197.439 353.935 197.103C355.88 196.332 357.879 195.703 359.915 195.22C361.982 194.731 364.086 194.41 366.205 194.261C367.294 194.189 368.37 194.141 369.47 194.141C371.625 194.138 373.776 194.306 375.904 194.645C384.104 195.94 391.734 199.651 397.826 205.305C399.318 206.686 400.705 208.177 401.976 209.766C403.905 212.149 405.566 214.739 406.927 217.488C407.381 218.4 407.812 219.335 408.194 220.306C412.325 230.423 412.325 241.763 408.194 251.88V251.784Z" fill="#20BED9"/>
</svg>
